<?xml version="1.0" encoding="UTF-8"?>
<svg xmlns="http://www.w3.org/2000/svg" xmlns:xlink="http://www.w3.org/1999/xlink" width="256px" height="256px" viewBox="0 0 256 256" version="1.1">
<g id="surface1">
<path style=" stroke:none;fill-rule:nonzero;fill:rgb(0%,0%,0%);fill-opacity:1;" d="M 28.445312 127.8125 L 28.445312 226.273438 L 226.910156 226.273438 L 226.910156 29.347656 L 28.445312 29.347656 Z M 223.675781 127.8125 L 223.675781 221.539062 L 31.675781 221.539062 L 31.675781 34.082031 L 223.675781 34.082031 Z M 223.675781 127.8125 "/>
<path style=" stroke:none;fill-rule:nonzero;fill:rgb(0%,0%,0%);fill-opacity:1;" d="M 84.039062 58.886719 C 83.652344 61.160156 82.746094 66.175781 82.035156 70.058594 C 81.324219 73.941406 77.382812 95.433594 73.308594 117.871094 C 69.238281 140.214844 65.488281 160.664062 64.96875 163.21875 C 64.453125 165.773438 64 168.046875 64 168.238281 C 64 168.425781 68.785156 168.519531 74.667969 168.519531 L 85.269531 168.519531 L 85.980469 164.449219 C 86.367188 162.273438 88.046875 152.992188 89.730469 143.90625 L 92.769531 127.335938 L 120.371094 127.054688 L 148.039062 126.863281 L 148.945312 121.847656 C 149.527344 119.195312 150.753906 112.472656 151.789062 106.980469 L 153.664062 97.042969 L 126.253906 96.757812 C 107.765625 96.664062 98.910156 96.1875 98.910156 95.527344 C 98.910156 95.054688 99.230469 92.6875 99.621094 90.320312 L 100.332031 86.152344 L 184.757812 86.152344 L 185.472656 83.03125 C 185.792969 81.421875 187.023438 74.980469 188.121094 68.734375 C 189.21875 62.578125 190.320312 56.898438 190.511719 56.238281 C 190.773438 55.101562 182.691406 54.910156 137.761719 54.910156 L 84.75 54.910156 Z M 84.039062 58.886719 "/>
<path style=" stroke:none;fill-rule:nonzero;fill:rgb(0%,0%,0%);fill-opacity:1;" d="M 62.707031 194.082031 C 62.707031 199.382812 62.902344 200.710938 63.675781 200.710938 C 64.257812 200.710938 64.644531 199.859375 64.644531 198.4375 C 64.644531 196.734375 65.035156 195.976562 66.070312 195.785156 C 68.136719 195.3125 68.332031 193.136719 66.328125 193.136719 C 65.292969 193.136719 64.644531 192.566406 64.644531 191.714844 C 64.644531 190.863281 65.226562 190.296875 66.261719 190.296875 C 67.296875 190.296875 67.878906 189.726562 67.878906 188.875 C 67.878906 187.835938 67.167969 187.457031 65.292969 187.457031 L 62.707031 187.457031 Z M 62.707031 194.082031 "/>
<path style=" stroke:none;fill-rule:nonzero;fill:rgb(0%,0%,0%);fill-opacity:1;" d="M 72.339844 189.160156 C 70.527344 191.335938 70.398438 196.070312 72.082031 198.816406 C 73.632812 201.277344 76.992188 201.277344 78.546875 198.816406 C 81.132812 194.652344 79.128906 187.457031 75.3125 187.457031 C 74.472656 187.457031 73.179688 188.214844 72.339844 189.160156 Z M 77.574219 192.1875 C 78.546875 194.839844 77.316406 197.871094 75.3125 197.871094 C 73.308594 197.871094 72.082031 194.839844 73.050781 192.1875 C 73.4375 191.054688 74.40625 190.296875 75.3125 190.296875 C 76.21875 190.296875 77.1875 191.054688 77.574219 192.1875 Z M 77.574219 192.1875 "/>
<path style=" stroke:none;fill-rule:nonzero;fill:rgb(0%,0%,0%);fill-opacity:1;" d="M 83.394531 194.082031 C 83.394531 199.382812 83.585938 200.710938 84.363281 200.710938 C 85.074219 200.710938 85.332031 199.574219 85.332031 196.261719 L 85.332031 191.8125 L 87.273438 196.261719 C 90.117188 202.792969 91.152344 202.226562 91.152344 194.082031 C 91.152344 188.78125 90.957031 187.457031 90.183594 187.457031 C 89.472656 187.457031 89.210938 188.589844 89.210938 191.90625 L 89.210938 196.355469 L 87.273438 191.90625 C 84.429688 185.371094 83.394531 185.941406 83.394531 194.082031 Z M 83.394531 194.082031 "/>
<path style=" stroke:none;fill-rule:nonzero;fill:rgb(0%,0%,0%);fill-opacity:1;" d="M 94.382812 188.875 C 94.382812 189.632812 94.835938 190.296875 95.355469 190.296875 C 96.128906 190.296875 96.324219 191.527344 96.324219 195.503906 C 96.324219 199.480469 96.515625 200.710938 97.292969 200.710938 C 98.003906 200.710938 98.261719 199.480469 98.261719 195.597656 C 98.261719 191.242188 98.457031 190.484375 99.621094 190.011719 C 101.882812 189.160156 100.332031 187.457031 97.226562 187.457031 C 95.160156 187.457031 94.382812 187.835938 94.382812 188.875 Z M 94.382812 188.875 "/>
<path style=" stroke:none;fill-rule:nonzero;fill:rgb(0%,0%,0%);fill-opacity:1;" d="M 104.210938 188.589844 C 102.722656 190.769531 103.371094 193.136719 105.695312 194.652344 C 106.925781 195.410156 107.960938 196.355469 107.960938 196.921875 C 107.960938 198.53125 106.730469 198.910156 105.4375 197.679688 C 103.820312 196.261719 102.917969 197.300781 104.082031 199.289062 C 105.113281 201.089844 108.21875 201.183594 109.253906 199.289062 C 110.480469 197.113281 109.769531 194.652344 107.441406 193.230469 C 104.664062 191.433594 104.792969 189.917969 107.636719 190.675781 C 110.09375 191.433594 110.738281 190.011719 108.671875 188.402344 C 106.988281 187.171875 105.179688 187.171875 104.210938 188.589844 Z M 104.210938 188.589844 "/>
<path style=" stroke:none;fill-rule:nonzero;fill:rgb(0%,0%,0%);fill-opacity:1;" d="M 119.726562 188.96875 C 117.914062 190.863281 117.722656 196.828125 119.464844 199.101562 C 121.082031 201.277344 124.316406 201.089844 125.671875 198.910156 C 126.964844 196.828125 125.929688 195.125 124.445312 196.921875 C 123.925781 197.492188 122.894531 197.871094 122.050781 197.679688 C 120.824219 197.492188 120.566406 196.828125 120.566406 194.082031 C 120.566406 190.296875 121.988281 189.347656 124.507812 191.335938 C 126.640625 192.945312 127.355469 191.433594 125.480469 189.253906 C 123.667969 187.078125 121.664062 186.980469 119.726562 188.96875 Z M 119.726562 188.96875 "/>
<path style=" stroke:none;fill-rule:nonzero;fill:rgb(0%,0%,0%);fill-opacity:1;" d="M 130.910156 189.824219 C 128.96875 192.664062 128.90625 194.933594 130.652344 198.25 C 131.621094 200.046875 132.589844 200.710938 134.078125 200.710938 C 136.792969 200.710938 138.34375 198.25 138.34375 193.796875 C 138.34375 187.738281 133.882812 185.371094 130.910156 189.824219 Z M 136.082031 194.082031 C 136.082031 196.921875 135.820312 197.394531 134.398438 197.679688 C 132.074219 198.058594 130.84375 195.691406 131.8125 192.566406 C 132.394531 190.675781 132.914062 190.203125 134.335938 190.484375 C 135.886719 190.769531 136.082031 191.148438 136.082031 194.082031 Z M 136.082031 194.082031 "/>
<path style=" stroke:none;fill-rule:nonzero;fill:rgb(0%,0%,0%);fill-opacity:1;" d="M 142.609375 188.589844 C 142.417969 189.253906 142.15625 192.285156 141.964844 195.21875 C 141.640625 199.667969 141.769531 200.710938 142.480469 200.710938 C 143.128906 200.710938 143.578125 199.382812 143.839844 197.113281 C 144.097656 195.21875 144.355469 193.230469 144.421875 192.757812 C 144.484375 192.1875 144.9375 193.796875 145.390625 196.261719 C 145.90625 198.722656 146.617188 200.710938 147.070312 200.710938 C 147.457031 200.710938 148.300781 198.722656 148.816406 196.164062 C 149.785156 192 149.851562 191.90625 149.914062 194.746094 C 149.980469 198.722656 150.5625 200.710938 151.597656 200.710938 C 152.242188 200.710938 152.371094 199.382812 152.113281 195.21875 C 151.726562 188.117188 151.53125 187.457031 150.109375 187.457031 C 149.269531 187.457031 148.621094 188.589844 148.039062 191.433594 L 147.199219 195.503906 L 146.359375 192.664062 C 145.90625 191.054688 145.519531 189.253906 145.453125 188.589844 C 145.453125 188.023438 144.871094 187.457031 144.160156 187.457031 C 143.449219 187.457031 142.738281 188.023438 142.609375 188.589844 Z M 142.609375 188.589844 "/>
<path style=" stroke:none;fill-rule:nonzero;fill:rgb(0%,0%,0%);fill-opacity:1;" d="M 156.25 188.117188 C 155.992188 188.402344 155.796875 191.433594 155.796875 194.746094 C 155.796875 199.382812 155.992188 200.710938 156.769531 200.710938 C 157.347656 200.710938 157.738281 199.859375 157.738281 198.34375 C 157.738281 196.542969 158.0625 195.976562 159.222656 195.976562 C 162.070312 195.976562 163.363281 192.664062 161.875 189.445312 C 160.90625 187.457031 157.21875 186.605469 156.25 188.117188 Z M 160.644531 192.1875 C 160.644531 192.945312 160 193.703125 159.222656 193.894531 C 158.0625 194.175781 157.738281 193.703125 157.738281 192.1875 C 157.738281 190.675781 158.0625 190.203125 159.222656 190.484375 C 160 190.675781 160.644531 191.433594 160.644531 192.1875 Z M 160.644531 192.1875 "/>
<path style=" stroke:none;fill-rule:nonzero;fill:rgb(0%,0%,0%);fill-opacity:1;" d="M 166.660156 194.082031 C 165.367188 199.289062 165.238281 200.710938 165.949219 200.710938 C 166.398438 200.710938 166.980469 200.046875 167.175781 199.289062 C 167.691406 197.394531 170.667969 197.492188 171.636719 199.382812 C 173.382812 202.980469 173.640625 199.953125 172.089844 193.796875 C 169.957031 185.277344 168.792969 185.277344 166.660156 194.082031 Z M 170.601562 195.21875 C 170.667969 195.691406 170.085938 195.976562 169.375 195.976562 C 167.886719 195.976562 167.820312 195.597656 168.855469 192.851562 C 169.566406 190.863281 169.566406 190.863281 170.085938 192.664062 C 170.34375 193.703125 170.601562 194.839844 170.601562 195.21875 Z M 170.601562 195.21875 "/>
<path style=" stroke:none;fill-rule:nonzero;fill:rgb(0%,0%,0%);fill-opacity:1;" d="M 177.132812 194.082031 C 177.132812 199.382812 177.324219 200.710938 178.101562 200.710938 C 178.746094 200.710938 179.070312 199.761719 179.070312 197.585938 L 179.070312 194.554688 L 180.363281 197.585938 C 181.074219 199.289062 182.109375 200.710938 182.625 200.710938 C 183.53125 200.710938 183.53125 200.332031 182.496094 197.871094 C 181.65625 195.691406 181.527344 194.839844 182.171875 193.894531 C 184.113281 191.054688 182.238281 187.457031 178.8125 187.457031 C 177.195312 187.457031 177.132812 187.644531 177.132812 194.082031 Z M 181.011719 191.714844 C 181.011719 192.472656 180.558594 193.136719 180.039062 193.136719 C 179.523438 193.136719 179.070312 192.472656 179.070312 191.714844 C 179.070312 190.957031 179.523438 190.296875 180.039062 190.296875 C 180.558594 190.296875 181.011719 190.957031 181.011719 191.714844 Z M 181.011719 191.714844 "/>
<path style=" stroke:none;fill-rule:nonzero;fill:rgb(0%,0%,0%);fill-opacity:1;" d="M 186.828125 194.082031 L 186.828125 200.710938 L 189.414062 200.710938 C 191.289062 200.710938 192 200.332031 192 199.289062 C 192 198.4375 191.417969 197.871094 190.382812 197.871094 C 188.378906 197.871094 188.25 196.261719 190.191406 195.785156 C 192.257812 195.3125 192.453125 193.136719 190.449219 193.136719 C 189.414062 193.136719 188.769531 192.566406 188.769531 191.714844 C 188.769531 190.863281 189.347656 190.296875 190.382812 190.296875 C 191.417969 190.296875 192 189.726562 192 188.875 C 192 187.835938 191.289062 187.457031 189.414062 187.457031 L 186.828125 187.457031 Z M 186.828125 194.082031 "/>
</g>
</svg>
